<svg width="30" height="30" viewBox="0 0 30 30" fill="none" xmlns="http://www.w3.org/2000/svg">
<g id="Iconly/Light-Outline/Show">
<g id="Show">
<path id="Fill 1" fill-rule="evenodd" clip-rule="evenodd" d="M14.9995 12.0518C13.337 12.0518 11.9857 13.4043 11.9857 15.0668C11.9857 16.728 13.337 18.0793 14.9995 18.0793C16.662 18.0793 18.0145 16.728 18.0145 15.0668C18.0145 13.4043 16.662 12.0518 14.9995 12.0518ZM14.9995 19.9543C12.3032 19.9543 10.1107 17.7618 10.1107 15.0668C10.1107 12.3705 12.3032 10.1768 14.9995 10.1768C17.6957 10.1768 19.8895 12.3705 19.8895 15.0668C19.8895 17.7618 17.6957 19.9543 14.9995 19.9543Z" fill="#EA5B0C"/>
<g id="Group 5">
<mask id="mask0_1_497" style="mask-type:luminance" maskUnits="userSpaceOnUse" x="2" y="5" width="26" height="21">
<path id="Clip 4" fill-rule="evenodd" clip-rule="evenodd" d="M2.50018 5.00049H27.5V25.1317H2.50018V5.00049Z" fill="white"/>
</mask>
<g mask="url(#mask0_1_497)">
<path id="Fill 3" fill-rule="evenodd" clip-rule="evenodd" d="M4.46237 15.0659C6.78737 20.2022 10.7036 23.2559 14.9999 23.2572C19.2961 23.2559 23.2124 20.2022 25.5374 15.0659C23.2124 9.93093 19.2961 6.87718 14.9999 6.87593C10.7049 6.87718 6.78737 9.93093 4.46237 15.0659ZM15.0024 25.1322H14.9974H14.9961C9.82612 25.1284 5.18362 21.5047 2.57612 15.4359C2.47487 15.1997 2.47487 14.9322 2.57612 14.6959C5.18362 8.62844 9.82737 5.00469 14.9961 5.00094C14.9986 4.99969 14.9986 4.99969 14.9999 5.00094C15.0024 4.99969 15.0024 4.99969 15.0036 5.00094C20.1736 5.00469 24.8161 8.62844 27.4236 14.6959C27.5261 14.9322 27.5261 15.1997 27.4236 15.4359C24.8174 21.5047 20.1736 25.1284 15.0036 25.1322H15.0024Z" fill="#EA5B0C"/>
</g>
</g>
</g>
</g>
</svg>
